<?xml version="1.0" encoding="UTF-8" standalone="no"?>
<svg
   width="11773.515"
   height="893.22742"
   version="1.1"
   id="svg2"
   sodipodi:docname="cookie_monster.svg"
   inkscape:version="1.3.2 (091e20e, 2023-11-25)"
   xmlns:inkscape="http://www.inkscape.org/namespaces/inkscape"
   xmlns:sodipodi="http://sodipodi.sourceforge.net/DTD/sodipodi-0.dtd"
   xmlns="http://www.w3.org/2000/svg"
   xmlns:svg="http://www.w3.org/2000/svg"
   xmlns:rdf="http://www.w3.org/1999/02/22-rdf-syntax-ns#"
   xmlns:cc="http://creativecommons.org/ns#"
   xmlns:dc="http://purl.org/dc/elements/1.1/">
  <sodipodi:namedview
     id="namedview1"
     pagecolor="#ffffff"
     bordercolor="#000000"
     borderopacity="0.25"
     inkscape:showpageshadow="2"
     inkscape:pageopacity="0.0"
     inkscape:pagecheckerboard="0"
     inkscape:deskcolor="#d1d1d1"
     inkscape:zoom="0.023643176"
     inkscape:cx="5773.336"
     inkscape:cy="422.95502"
     inkscape:window-width="1728"
     inkscape:window-height="999"
     inkscape:window-x="0"
     inkscape:window-y="38"
     inkscape:window-maximized="0"
     inkscape:current-layer="svg2" />
  <defs
     id="defs2" />
  <title
     id="title1">cookie monster head</title>
  <circle
     style="fill:#ffffff;fill-opacity:0;stroke:none;stroke-width:7.27246"
     id="path3"
     cx="6406.4409"
     cy="454.38046"
     r="438.84695" />
  <g
     id="g2"
     transform="matrix(0.97635343,0.16923077,-0.16923077,0.97635343,7876.9193,-20.299313)"
     style="fill:#ffffff;fill-opacity:1;stroke:none">
    <title
       id="title2">Layer 1</title>
    <g
       id="svg_17"
       style="display:inline;fill:#ffffff;fill-opacity:1;stroke:none"
       transform="translate(-4.2997909,67.772808)">
      <rect
         id="svg_13"
         height="275"
         width="859"
         y="522"
         x="1.5"
         stroke-linecap="null"
         stroke-linejoin="null"
         stroke-dasharray="none"
         stroke-width="null"
         fill="#ffffff"
         style="display:none;fill:#ffffff;fill-opacity:1;stroke:none" />
      <path
         id="svg_2"
         d="m 529.98,50.221 c -26.649,-0.972 -50.66,7.185 -70.297,25.724 -7.211,6.809 -13.364,14.041 -18.125,21.677 H 411.6 C 394.89,69.44 364.118,50.326 328.976,50.037 c -53.681,-0.44 -98.685,42.774 -99.069,95.132 -0.389,52.832 41.687,95.473 94.41,95.679 41.098,0.16 75.792,-22.01 91.534,-54.728 h 24.101 c 14.181,31.112 46.436,53.237 83.647,54.71 52.941,2.097 98.896,-39.5 101.063,-91.48 2.191,-52.557 -40.016,-97.135 -94.682,-99.129 z"
         fill="#ffffff"
         style="display:none;fill:#ffffff;fill-opacity:1;stroke:none" />
      <path
         fill="#000000"
         id="svg_4"
         d="m 33.348,373.375 c 3.513,-21.938 10.791,-42.238 23.66,-60.71 2.208,-3.171 -1.146,-10.422 -2.319,-15.701 -1.887,-8.496 -5.914,-16.952 -5.756,-25.363 0.256,-13.549 7.15,-17.705 20.665,-15.282 21.479,3.853 20.691,3.388 28.698,-15.925 2.956,-7.129 10.643,-13.207 17.554,-17.579 11.263,-7.126 23.255,-13.552 35.721,-18.167 8.414,-3.114 12.785,-6.851 13.391,-15.864 0.286,-4.249 2.094,-8.849 4.513,-12.407 4.778,-7.027 10.501,-10.425 19.116,-4.072 5.646,4.163 12.515,7.274 19.307,9.145 11.872,3.27 16.917,-1.405 15.432,-13.754 -3.566,-29.667 0.912,-57.039 19.326,-81.724 41.428,-55.534 129.64,-57.285 172.344,-3.01 1.945,2.472 3.87,4.963 5.875,7.386 5.579,6.748 10.399,7.213 15.76,-0.774 C 454.919,62.335 481.96,49.5 513.329,44.457 582.658,33.31 645.19,96.215 633.797,165.484 c -3.31,20.122 -3.028,20.562 16.471,26.265 23.197,6.784 46.341,10.371 70.121,1.967 11.164,-3.945 18.308,1.085 16.625,13.168 -2.244,16.115 4.729,22.893 18.362,29.196 22.442,10.375 32.689,29.403 30.781,54.445 -0.652,8.562 9.405,19.239 20.885,21.254 8.607,1.511 21.14,-0.286 20.009,11.908 -0.592,6.377 -11.033,11.872 -17.103,17.684 -1.248,1.195 -2.836,2.035 -4.675,3.324 6.945,13.351 14.66,25.961 20.204,39.461 5.711,13.908 8.677,28.627 -4.33,41.082 1.732,1.401 2.655,2.427 3.802,3.028 9.262,4.857 17.91,11.44 14.77,22.76 -3.207,11.556 -14.007,17.149 -25.337,16.392 -15.164,-1.015 -17.166,4.329 -16.826,18.628 0.74,31.229 -8.896,58.246 -39.513,74.015 -5.314,2.737 -8.049,11.058 -11.275,17.169 -9.844,18.646 -15.031,38.371 -13.254,59.699 1.14,13.682 -4.131,18.735 -17.416,13.685 -12.749,-4.847 -18.966,-1.568 -26.378,9.129 -7.256,10.473 -17.65,19.01 -27.61,27.259 -4.558,3.775 -12.071,7.738 -17.036,6.554 -14.797,-3.526 -22.133,6.755 -32.524,12.938 -15.958,9.497 -33.565,16.23 -50.525,24.021 -1.57,0.722 -3.932,1.424 -5.236,0.768 -17.201,-8.657 -29.434,4.45 -43.285,9.858 -19.006,7.419 -37.738,7.907 -58.051,4.543 -13.193,-2.186 -27.677,3.407 -41.582,5.516 -7.196,0 -14.394,0 -21.59,0 -22.554,-7.099 -45.107,-14.201 -67.667,-21.284 -1.278,-0.402 -2.833,-1.259 -3.878,-0.873 -19.555,7.218 -32.647,-5.863 -46.036,-15.638 -10.589,-7.729 -19.52,-15.014 -34.458,-12.883 -7.755,1.106 -17.344,-4.132 -24.746,-8.704 -9.032,-5.582 -16.637,-13.476 -25.007,-20.492 -11.115,4.787 -15.178,5.495 -23.098,-4.065 -11.591,-13.989 -21.05,-29.749 -31.333,-44.812 -2.958,-4.334 -4.619,-10.35 -8.599,-13.059 C 105.821,594.668 95.248,573.061 90.957,548.712 88.464,534.565 84.827,529.65 69.535,532.671 50.538,536.426 44.223,528.6 51.602,509.762 c 9.25,-23.618 8.526,-46.565 0.996,-69.777 -5.806,-17.903 -12.79,-35.423 -19.25,-53.114 0,-4.499 0,-8.998 0,-13.496 z m 679.04,260.591 c 13.686,-41.528 26.29,-79.774 40.105,-121.696 2.859,11.337 4.787,18.982 6.779,26.881 1.99,-0.54 3.439,-0.584 4.431,-1.279 1.8,-1.266 3.409,-2.839 4.956,-4.422 17.56,-17.948 16.895,-40.532 15.933,-63.149 -0.311,-7.312 -0.937,-14.61 -1.558,-24.024 9.522,4.3 16.128,7.925 23.157,10.292 8.443,2.842 15.575,0.883 19.987,-8.933 -22.878,-11.495 -33.67,-30.521 -37.863,-55.978 9.62,4.925 17.296,8.856 27.185,13.918 0.512,-37.308 -18.893,-59.62 -49.208,-79.426 14.25,0 23.89,0 31.206,0 -15.011,-19.174 -30.112,-38.466 -45.213,-57.757 0.597,-0.85 1.193,-1.7 1.79,-2.551 6.476,1.467 12.952,2.932 20.733,4.694 -13.122,-30.714 -41.376,-26.555 -68.139,-31.065 6.265,-7.937 11.221,-13.47 15.213,-19.626 1.693,-2.612 1.987,-6.604 1.618,-9.821 -0.126,-1.109 -4.482,-2.948 -6.4,-2.46 -29.139,7.405 -56.913,2.04 -84.677,-7.311 -4.47,-1.505 -13.278,0.939 -16.034,4.603 -47.247,62.805 -143.618,58.526 -184.833,-11.962 -1.34,-2.292 -2.255,-4.832 -3.143,-6.771 -4.049,2.689 -5.599,3.16 -6.168,4.179 -18.613,33.258 -46.785,53.159 -84.605,56.835 -34.605,3.363 -65.267,-6.016 -89.289,-33.394 -6.759,-7.704 -12.161,-17.885 -26.713,-17.129 -11.989,0.622 -24.282,-4.732 -36.451,-7.394 -3.619,-0.791 -7.27,-1.431 -10.907,-2.141 -0.918,1.43 -1.838,2.858 -2.758,4.288 7.705,7.434 15.41,14.868 26.178,25.26 -32.107,-3.292 -59.36,0.157 -84.771,20.815 12.14,2.388 22.002,4.328 33.673,6.622 -23.445,21.461 -47.971,31.121 -76.803,29.844 -4.224,-0.187 -8.577,2.593 -12.872,4 2.961,4.637 4.923,10.789 9.117,13.555 6.208,4.094 14,5.785 21.674,8.71 -34.418,23.937 -49.057,61.536 -41.574,94.071 4.781,-4.254 9.667,-8.602 14.585,-12.98 0,17.644 -2.78,34.215 0.6,49.418 6.362,28.619 10.027,56.526 0.609,84.951 -0.15,0.453 0.924,1.312 3.212,4.363 9.576,-8.551 18.94,-16.912 31.415,-28.051 -3.448,39.476 6.291,71.426 25.919,101.307 3.444,-2.111 6.184,-3.791 9.704,-5.947 11.495,23.837 22.57,46.803 35.125,72.835 4.567,-8.316 6.788,-12.357 11.975,-21.801 9.264,11.26 15.859,21.656 24.753,29.417 8.838,7.71 16.288,19.437 31.764,18.638 -0.477,-5.648 -0.866,-10.252 -1.458,-17.268 5.544,3.459 9.604,5.322 12.844,8.132 12.755,11.062 24.745,23.079 38.043,33.422 7.663,5.959 17.757,13.751 23.732,-3.528 48.92,33.601 100.067,40.588 154.203,17.129 0.795,4.479 1.447,8.155 2.168,12.213 21.169,-0.586 40.389,-4.325 57.14,-15.803 9.72,-6.658 18.219,-13.752 30.811,-5.641 2.978,1.918 9.344,0.989 12.952,-0.908 14.071,-7.4 28.795,-14.294 41.105,-24.101 11.832,-9.426 20.979,-22.221 33.603,-36.051 -1.24,12.476 -2.114,21.25 -3.37,33.893 30.075,-20.329 52.604,-40.766 61.053,-74.116 5.203,7.638 9.171,13.465 13.757,20.199 z M 324.316,240.848 c 56.175,0.219 100.391,-41.278 100.591,-94.41 0.2,-52.66 -42.895,-95.964 -95.932,-96.401 -53.681,-0.44 -98.685,42.774 -99.069,95.132 -0.388,52.832 41.687,95.473 94.41,95.679 z m 108.016,-93.46 c -2.016,50.047 39.911,91.409 91.267,93.442 52.941,2.097 98.896,-39.5 101.063,-91.48 2.19,-52.557 -40.017,-97.135 -94.682,-99.129 -26.649,-0.972 -50.66,7.185 -70.297,25.724 -21.434,20.237 -33.57,44.205 -27.351,71.443 z"
         clip-rule="evenodd"
         fill-rule="evenodd"
         style="display:inline;fill:#ffffff;fill-opacity:1;stroke:none" />
      <path
         id="svg_6"
         d="m 351.198,127.65 c 22.921,-0.183 41.327,16.87 41.728,38.659 0.436,23.79 -17.414,41.925 -41.285,41.944 -23.237,0.019 -42.371,-18.161 -42.116,-40.016 0.262,-22.598 18.542,-40.402 41.673,-40.587 z"
         clip-rule="evenodd"
         fill-rule="evenodd"
         style="display:inline;fill:#ffffff;fill-opacity:1;stroke:none" />
      <path
         id="svg_7"
         d="m 495.674,90.503 c 23.253,-0.025 42.703,18.845 42.562,41.294 -0.141,22.458 -18.486,40.039 -41.855,40.111 -23.013,0.07 -41.509,-17.783 -41.713,-40.262 -0.204,-22.23 18.623,-41.118 41.006,-41.143 z"
         clip-rule="evenodd"
         fill-rule="evenodd"
         style="display:inline;fill:#ffffff;fill-opacity:1;stroke:none" />
      <path
         id="svg_8"
         fill="#000000"
         d="m 506.70567,326.22767 c 14.562,9.012 28.669,18.903 43.818,26.787 15.128,7.874 31.304,13.738 49.819,21.685 -1.856,-12.933 -3.018,-21.009 -4.688,-32.634 6.211,3.415 9.988,4.584 12.537,7.033 29.479,28.325 88.945,20.582 117.226,0.009 4.504,-3.277 5.924,-10.81 8.738,-16.39 1.877,-3.724 2.951,-9.707 5.734,-10.637 3.285,-1.098 8.732,1.236 11.995,3.72 8,6.093 11.547,24.834 6.706,33.772 -1.31,2.417 -5.092,5.824 -6.756,5.347 -12.253,-3.514 -20.035,5.201 -29.467,9.584 -8.49,3.945 -17.695,6.465 -25.882,10.911 -4.668,2.537 16.296,-7.277 -14.539,6.744 -30.835,14.021 -29.572,15.875 -58.158,28.604 -28.586,12.729 21.911,9.771 -78.555,9.42 -100.466,-0.351 -30.002,-0.872 -108.548,0.074 -78.546,0.946 -24.281,-0.715 -113.008,-0.809 -88.727,-0.094 -94.692,5.62 -113.56,-8.709 -18.868,-14.329 -14.624,-13.474 -45.413,-28.492 -30.789,-15.018 -18.043,-7.566 -20.854,-9.519 -12.392,-8.613 -24.681,-17.402 -37.432,-25.454 -3.015,-1.904 -7.838,-0.685 -11.536,-1.841 -3.939,-1.23 -10.938,-4.785 -10.77,-5.256 3.611,-10.178 6.284,-21.498 12.858,-29.565 5.365,-6.582 19.056,-0.821 18.082,6.834 -1.838,14.449 8.413,19.956 17.274,25.845 26.361,17.517 67.059,15.22 92.578,-4.342 1.424,-1.093 2.584,-2.753 4.171,-3.371 5.055,-1.97 10.253,-3.574 15.396,-5.318 0.1,5.29 0.412,10.585 0.207,15.863 -0.097,2.538 -1.174,5.036 -2.24,9.271 14.781,0.481 25.81,-6.217 36.916,-12.432 3.506,-1.961 6.573,-4.694 9.911,-6.97 9.269,-6.318 14.493,-4.211 14.052,7.179 -0.473,12.224 5.064,13.363 14.805,11.756 23.3,-3.847 42.898,-15.049 61.293,-29.189 4.811,-3.698 10.827,-5.829 16.289,-8.68 -0.813,6.044 -1.605,12.092 -2.455,18.129 -0.245,1.744 -0.662,3.462 -1.208,6.254 14.595,3.721 22.985,-7.946 33.796,-12.49 1.941,-0.817 3.309,-2.968 4.984,-4.454 15.98,-14.19 14.834,-12.66 31.334,-0.261 11.265,8.464 26.202,12.148 39.727,17.381 2.12,0.82 7.488,-1.053 7.796,-2.459 0.606,-2.764 -1.203,-6.105 -2.175,-9.154 -1.205,-3.789 -2.576,-7.524 -3.875,-11.282 1.028,-0.831 2.052,-1.662 3.077,-2.494 z"
         clip-rule="evenodd"
         fill-rule="evenodd"
         style="display:inline;fill:#ffffff;fill-opacity:1;stroke:none" />
      <rect
         id="svg_9"
         height="26.999998"
         width="375.00006"
         y="403"
         x="230.99995"
         stroke-linecap="null"
         stroke-linejoin="null"
         stroke-dasharray="none"
         stroke-width="null"
         fill="#000000"
         style="display:inline;fill:#ffffff;fill-opacity:1;stroke:none" />
      <rect
         id="svg_12"
         height="275"
         width="859"
         y="409"
         x="3"
         stroke-linecap="null"
         stroke-linejoin="null"
         stroke-dasharray="none"
         stroke-width="null"
         fill="#ffffff"
         style="display:none;fill:#ffffff;fill-opacity:1;stroke:none" />
      <rect
         id="svg_15"
         height="275"
         width="859"
         y="557.16669"
         x="3.5"
         stroke-linecap="null"
         stroke-linejoin="null"
         stroke-dasharray="none"
         stroke-width="null"
         fill="#ffffff"
         style="display:none;fill:#ffffff;fill-opacity:1;stroke:none" />
      <path
         style="fill:#ffffff;fill-opacity:1;stroke:none;stroke-width:1.74463"
         id="path2"
         d="M 796.7595,265.02677 A 299.86545,257.5062 0 0 1 653.73941,511.87815 299.86545,257.5062 0 0 1 332.73713,506.15964 299.86545,257.5062 0 0 1 201.76159,254.42716 l 296.72971,37.14245 z"
         transform="translate(-72.561152,107.80415)" />
    </g>
  </g>
  <text
     xml:space="preserve"
     style="font-size:1063.65px;line-height:0px;font-family:'Courier New';-inkscape-font-specification:'Courier New';letter-spacing:19.9434px;word-spacing:0px;fill:#ffffff;fill-opacity:1;stroke:none;stroke-width:30.1504"
     x="-81.539574"
     y="830.45721"
     id="text3"><tspan
       id="tspan3"
       x="-81.539574"
       y="830.45721"
       style="font-style:normal;font-variant:normal;font-weight:normal;font-stretch:normal;font-family:Monaco;-inkscape-font-specification:Monaco;fill:#ffffff;fill-opacity:1;stroke-width:30.1504">SPECULOOS  M<tspan
   style="font-size:133.333px"
   id="tspan1"> </tspan> nster</tspan></text>
  <metadata
     id="metadata1">
    <rdf:RDF>
      <cc:Work
         rdf:about="">
        <dc:title>cookie monster head</dc:title>
      </cc:Work>
    </rdf:RDF>
  </metadata>
</svg>
